HIERARCHY
ROOT Hips
{
  OFFSET 55.6786 94.5073 10.6888
  CHANNELS 6 Xposition Yposition Zposition Zrotation Xrotation Yrotation
  JOINT spine
  {
    OFFSET 0 7.80058 0.448573
    CHANNELS 3 Zrotation Xrotation Yrotation
    JOINT spine1
    {
      OFFSET 0 10.1364 0
      CHANNELS 3 Zrotation Xrotation Yrotation
      JOINT spine2
      {
        OFFSET 0 9.71251 0
        CHANNELS 3 Zrotation Xrotation Yrotation
        JOINT Neck
        {
          OFFSET 0 24.9361 1.18887
          CHANNELS 3 Zrotation Xrotation Yrotation
          JOINT Head
          {
            OFFSET 0 7.53384 0
            CHANNELS 3 Zrotation Xrotation Yrotation
            End Site
            {
              OFFSET 0 18.2361 -6.01402
            }
          }
        }
        JOINT RightShoulder
        {
          OFFSET -4.08965 10.4888 -0.569457
          CHANNELS 3 Zrotation Xrotation Yrotation
          JOINT RightArm
          {
            OFFSET 0 13.757 0
            CHANNELS 3 Zrotation Xrotation Yrotation
            JOINT RightArmRoll
            {
              OFFSET 0 6.94478 0
              CHANNELS 3 Zrotation Xrotation Yrotation
              JOINT RightForeArm
              {
                OFFSET 0 20.2277 0
                CHANNELS 3 Zrotation Xrotation Yrotation
                JOINT RightForeArmRoll
                {
                  OFFSET 0 7.79312 0
                  CHANNELS 3 Zrotation Xrotation Yrotation
                  JOINT RightHand
                  {
                    OFFSET 0 15.6391 0
                    CHANNELS 3 Zrotation Xrotation Yrotation
                    End Site
                    {
                      OFFSET 0 0 0
                    }
                  }
                }
              }
            }
          }
        }
        JOINT LeftShoulder
        {
          OFFSET 4.08965 10.4888 -0.569457
          CHANNELS 3 Zrotation Xrotation Yrotation
          JOINT LeftArm
          {
            OFFSET 0 13.757 0
            CHANNELS 3 Zrotation Xrotation Yrotation
            JOINT LeftArmRoll
            {
              OFFSET 0 6.94478 0
              CHANNELS 3 Zrotation Xrotation Yrotation
              JOINT LeftForeArm
              {
                OFFSET 0 20.2277 0
                CHANNELS 3 Zrotation Xrotation Yrotation
                JOINT LeftForeArmRoll
                {
                  OFFSET 0 7.79312 0
                  CHANNELS 3 Zrotation Xrotation Yrotation
                  JOINT LeftHand
                  {
                    OFFSET 0 15.6391 0
                    CHANNELS 3 Zrotation Xrotation Yrotation
                    End Site
                    {
                      OFFSET 0 0 0
                    }
                  }
                }
              }
            }
          }
        }
      }
    }
  }
  JOINT RightUpLeg
  {
    OFFSET -6.91415 -1.26788 -1.06358
    CHANNELS 3 Zrotation Xrotation Yrotation
    JOINT RightUpLegRoll
    {
      OFFSET 0 18.3378 0
      CHANNELS 3 Zrotation Xrotation Yrotation
      JOINT RightLeg
      {
        OFFSET 0 -22.7085 0
        CHANNELS 3 Zrotation Xrotation Yrotation
        JOINT RightLegRoll
        {
          OFFSET 0 22.7828 0
          CHANNELS 3 Zrotation Xrotation Yrotation
          JOINT RightFoot
          {
            OFFSET 0 18.9629 0
            CHANNELS 3 Zrotation Xrotation Yrotation
            JOINT RightToeBase
            {
              OFFSET 0 15.852 0
              CHANNELS 3 Zrotation Xrotation Yrotation
              End Site
              {
                OFFSET 0.00671906 7.677 -0.884893
              }
            }
          }
        }
      }
    }
  }
  JOINT LeftUpLeg
  {
    OFFSET 6.91415 -1.26788 -1.06358
    CHANNELS 3 Zrotation Xrotation Yrotation
    JOINT LeftUpLegRoll
    {
      OFFSET 0 18.3379 0
      CHANNELS 3 Zrotation Xrotation Yrotation
      JOINT LeftLeg
      {
        OFFSET 0 22.7084 0
        CHANNELS 3 Zrotation Xrotation Yrotation
        JOINT LeftLegRoll
        {
          OFFSET 0 22.9934 0
          CHANNELS 3 Zrotation Xrotation Yrotation
          JOINT LeftFoot
          {
            OFFSET 0 18.7522 0
            CHANNELS 3 Zrotation Xrotation Yrotation
            JOINT LeftToeBase
            {
              OFFSET 0 15.852 0
              CHANNELS 3 Zrotation Xrotation Yrotation
              End Site
              {
                OFFSET -0.030112 7.67701 -0.884893
              }
            }
          }
        }
      }
    }
  }
}
MOTION
Frames: 4
Frame Time: 0.00208333
56.6547 94.1668 13.1092 -2.02159 -4.55886 -1.84906 0.198972 -0.271903 0.342405 0.404454 3.46545 0.67478 0.397103 5.11046 0.66849 -0.417216 16.3599 -1.54885 4.99748 -14.5671 -0.523329 84.843 -4.02135 -4.26472 85.7234 10.4113 9.43586 -3.41212e-006 8.24826e-007 3.17832e-006 15.1745 17.7972 -3.09889 6.76844e-006 -2.63182e-006 -3 8.02893 -4.95146 0.69772 -65.2559 -0.949209 1.30385 -105.505 -2.48608 -10.0236 -3.09923e-006 -1.54209e-006 -3.24749e-006 -8.51532 26.6516 3.66869 3.81145e-006 1.30204e-006 3 -8.02918 -4.95167 -0.697756 179.106 -0.819493 -1.96193 180 7.01548e-015 178.928 -178.839 9.58454 179.152 2.32068e-006 -2.09091e-006 0.0985298 -17.284 69.2406 20.5508 8.13436 25.2328 -3.48683 -176.035 1.10889 4.59716 4.54188e-006 -4.6773e-006 -1.28354 -4.41662 -13.661 -0.212264 7.72107e-007 -4.48212e-006 -0.234872 23.1582 71.7104 -23.354 -8.12843 25.2331 3.47657 
56.6481 94.1737 13.1117 -2.02365 -4.56502 -1.84345 0.199368 -0.270574 0.342232 0.403997 3.46774 0.672701 0.396648 5.11275 0.666429 -0.415853 16.3656 -1.54595 4.99962 -14.5727 -0.519288 84.8863 -4.01773 -4.26617 85.671 10.457 9.27417 -3.41212e-006 8.24826e-007 3.17832e-006 15.2581 17.903 -3.11924 6.76844e-006 -2.63182e-006 -3 8.02893 -4.95146 0.69772 -65.262 -0.913377 1.28517 -105.543 -2.37454 -10.1657 -3.09923e-006 -1.54209e-006 -3.24749e-006 -8.37931 26.4234 3.60623 3.81145e-006 1.30204e-006 3 -8.02918 -4.95167 -0.697756 179.111 -0.827503 -1.9641 180 7.01548e-015 178.928 -178.837 9.58755 179.152 2.32068e-006 -2.09091e-006 0.0985349 -17.289 69.2455 20.5536 8.13436 25.2328 -3.48683 -176.03 1.09919 4.58945 4.54188e-006 -4.6773e-006 -1.28354 -4.42157 -13.6584 -0.212954 7.72107e-007 -4.48212e-006 -0.234863 23.159 71.7057 -23.3509 -8.12843 25.2331 3.47657 
56.6519 94.1797 13.1147 -2.02563 -4.57128 -1.83782 0.199766 -0.26929 0.342099 0.403473 3.46994 0.670631 0.396125 5.11494 0.664378 -0.41511 16.3715 -1.54298 5.00281 -14.5773 -0.515129 84.9301 -4.01406 -4.26764 85.6181 10.5039 9.11332 -3.41212e-006 8.24826e-007 3.17832e-006 15.3424 18.0044 -3.13888 6.76844e-006 -2.63182e-006 -3 8.02893 -4.95146 0.69772 -65.2684 -0.877027 1.26624 -105.581 -2.26181 -10.3099 -3.09923e-006 -1.54209e-006 -3.24749e-006 -8.24251 26.1917 3.54317 3.81145e-006 1.30204e-006 3 -8.02918 -4.95167 -0.697756 179.116 -0.835478 -1.96628 180 7.01548e-015 178.928 -178.835 9.59079 179.151 2.32068e-006 -2.09091e-006 0.0985241 -17.2939 69.2504 20.5564 8.13436 25.2328 -3.48683 -176.025 1.08916 4.58175 4.54188e-006 -4.6773e-006 -1.28355 -4.42655 -13.6556 -0.213645 7.72107e-007 -4.48212e-006 -0.234849 23.1598 71.7009 -23.3478 -8.12843 25.2331 3.47657 
56.6513 94.172 13.116 -2.02756 -4.57761 -1.83217 0.200164 -0.268039 0.341993 0.402903 3.47206 0.668566 0.395555 5.11707 0.662333 -0.414802 16.3776 -1.53994 5.00675 -14.5812 -0.510887 84.9742 -4.01035 -4.26911 85.5649 10.5515 8.95305 -3.41212e-006 8.24826e-007 3.17832e-006 15.4271 18.1028 -3.15803 6.76844e-006 -2.63182e-006 -3 8.02893 -4.95146 0.69772 -65.2751 -0.840316 1.24715 -105.617 -2.14827 -10.4555 -3.09923e-006 -1.54209e-006 -3.24749e-006 -8.10533 25.9574 3.47978 3.81145e-006 1.30204e-006 3 -8.02918 -4.95167 -0.697756 179.121 -0.843429 -1.96845 180 7.01548e-015 178.928 -178.834 9.5942 179.151 2.32068e-006 -2.09091e-006 0.098502 -17.2989 69.2555 20.5592 8.13436 25.2328 -3.48683 -176.02 1.0789 4.57404 4.54188e-006 -4.6773e-006 -1.28356 -4.43155 -13.6527 -0.214337 7.72107e-007 -4.48212e-006 -0.234832 23.1607 71.696 -23.3448 -8.12843 25.2331 3.47657 
